<?xml version="1.0" standalone="no"?>
<!DOCTYPE svg PUBLIC "-//W3C//DTD SVG 20010904//EN"
 "http://www.w3.org/TR/2001/REC-SVG-20010904/DTD/svg10.dtd">
<svg version="1.0" xmlns="http://www.w3.org/2000/svg"
 width="1000.000000pt" height="1000.000000pt" viewBox="0 0 1000.000000 1000.000000"
 preserveAspectRatio="xMidYMid meet">

<g transform="translate(0.000000,1000.000000) scale(0.100000,-0.100000)"
fill="#000000" stroke="none">
<path d="M4676 9240 c-1888 -139 -3489 -1146 -4236 -2665 -410 -834 -521
-1726 -329 -2650 73 -355 220 -838 312 -1028 164 -338 601 -862 1022 -1228
365 -317 678 -530 1080 -735 627 -321 1242 -500 1990 -581 122 -13 248 -17
535 -17 390 0 518 8 830 55 766 113 1532 399 2155 807 306 200 560 407 836
682 323 321 592 667 747 960 95 178 208 483 297 800 91 323 85 246 85 1153 l0
803 -39 160 c-334 1344 -1354 2479 -2761 3069 -178 74 -536 195 -730 244 -284
74 -564 123 -875 156 -177 19 -741 28 -919 15z m-821 -1169 c-6 -5 -221 -91
-480 -191 -465 -179 -501 -196 -745 -340 -404 -239 -610 -363 -607 -366 1 -2
32 4 67 12 336 78 2889 644 2907 644 13 0 520 -111 1126 -246 606 -135 1271
-283 1477 -329 206 -46 376 -82 378 -81 2 3 -278 171 -718 431 -145 85 -187
104 -630 274 -261 101 -479 188 -485 193 -7 7 -3 8 10 5 11 -4 299 -47 640
-97 341 -50 636 -97 655 -104 39 -14 939 -591 956 -613 12 -15 27 -57 466
-1308 361 -1030 352 -1003 372 -1165 18 -154 192 -1642 202 -1738 6 -60 5 -65
-22 -94 -24 -25 -431 -397 -714 -652 -36 -32 -84 -67 -107 -77 -62 -27 -1110
-359 -1130 -358 -23 0 -848 581 -848 596 0 6 227 159 505 338 278 180 553 359
613 397 173 113 217 130 -508 -197 -642 -289 -632 -285 -750 -306 -60 -10
-393 -62 -740 -114 -346 -52 -656 -98 -687 -104 -38 -6 -78 -6 -115 0 -32 6
-344 53 -693 105 -349 52 -682 103 -740 114 -118 21 -131 26 -870 360 -489
221 -498 225 -485 212 8 -8 267 -176 1104 -718 68 -44 123 -84 123 -88 -1 -4
-191 -140 -422 -303 -389 -273 -424 -295 -453 -289 -32 6 -635 196 -962 303
-161 53 -173 58 -234 112 -118 102 -706 638 -735 669 l-29 31 26 233 c15 128
66 566 113 973 l86 740 181 520 c99 286 282 810 407 1165 l227 645 477 308
477 308 497 74 c273 41 567 85 652 98 191 30 176 29 165 18z"/>
<path d="M2746 5069 c-2 -8 -9 -81 -16 -164 -6 -82 -14 -158 -16 -167 -6 -21
21 -35 741 -378 580 -277 867 -411 870 -407 2 1 6 225 10 498 l7 496 -49 7
c-53 7 -1047 89 -1288 106 -82 5 -174 13 -202 16 -40 5 -54 3 -57 -7z"/>
<path d="M7090 5069 c-58 -5 -386 -32 -730 -60 -344 -27 -642 -53 -663 -56
l-39 -6 7 -496 c4 -273 9 -497 10 -499 3 -4 1293 607 1517 719 l96 48 -5 38
c-2 21 -10 101 -16 178 l-12 140 -30 1 c-16 1 -77 -2 -135 -7z"/>
</g>
</svg>
